<svg height="15.5" viewBox="0 0 15.5 15.5" width="15.5" xmlns="http://www.w3.org/2000/svg">
    <path
        d="M7.75 11a3 3 0 1 0 3 3 3 3 0 0 0-3-3zm0 4.5a1.5 1.5 0 1 1 1.5-1.5 1.5 1.5 0 0 1-1.5 1.5zm0-7.5a7.75 7.75 0 1 0 7.75 7.75A7.749 7.749 0 0 0 7.75 8zm0 14a6.214 6.214 0 0 1-4.066-1.512 2.692 2.692 0 0 1 2.175-1.234 6.358 6.358 0 0 0 1.891.3 6.259 6.259 0 0 0 1.891-.3 2.7 2.7 0 0 1 2.175 1.234A6.214 6.214 0 0 1 7.75 22zm5.084-2.628A4.145 4.145 0 0 0 9.55 17.75a9.378 9.378 0 0 1-1.8.3 9.429 9.429 0 0 1-1.8-.3 4.154 4.154 0 0 0-3.284 1.622A6.247 6.247 0 1 1 14 15.75a6.205 6.205 0 0 1-1.166 3.622z"
        data-name="regular user-circle" fill="#fff" id="prefix__regular_user-circle"
        transform="translate(0 -8)">
    </path>
</svg>
