<svg xmlns="http://www.w3.org/2000/svg" width="219.696" height="45.92" viewBox="0 0 219.696 45.92">
  <g id="Group_11" data-name="Group 11" transform="translate(-130.078 -28.224)">
    <path id="Path_4" data-name="Path 4" d="M26.946,0h217.68l-2.016,9H24.931Z" transform="translate(105.147 45)" fill="#7cb342" opacity="0.5"/>
    <path id="Path_152" data-name="Path 152" d="M16.848-9.144,15.048,0h-8.5L8.388-9.252,2.088-25.2H10.62l3.42,8.712L21.06-25.2h8.532ZM38.88.576A15.381,15.381,0,0,1,32.094-.846a10.727,10.727,0,0,1-4.536-3.978,10.816,10.816,0,0,1-1.6-5.868A14.988,14.988,0,0,1,27.99-18.5a14.192,14.192,0,0,1,5.652-5.346,17.233,17.233,0,0,1,8.226-1.926,15.041,15.041,0,0,1,6.444,1.314,9.023,9.023,0,0,1,4.176,3.726l-6.12,4.788a5.463,5.463,0,0,0-5.04-2.952,6.494,6.494,0,0,0-3.528.972,6.566,6.566,0,0,0-2.412,2.718,8.852,8.852,0,0,0-.864,3.978A4.709,4.709,0,0,0,35.946-7.65,5.239,5.239,0,0,0,39.708-6.3a7.134,7.134,0,0,0,5.616-2.916l5,4.788A12.679,12.679,0,0,1,45.342-.576,16.832,16.832,0,0,1,38.88.576ZM80.384-24.5,75.484,0h-8.26l1.82-9.03h-7.63L59.594,0h-8.26l4.9-24.5h8.26l-1.75,8.68h7.63l1.75-8.68ZM97.324-4.27H87.979L85.529,0H76.814l15.61-24.5h8.12L106.354,0H98.129Zm-1.155-5.95-1.19-6.265L91.374-10.22ZM136.734-24.5,131.834,0h-6.79l-7.035-11.41L115.734,0h-8.05l4.9-24.5h6.79l7.035,11.41,2.275-11.41Zm17.885,11.585h7.175l-2.1,10.57a15.012,15.012,0,0,1-4.5,2.153,19.057,19.057,0,0,1-5.443.753,14.954,14.954,0,0,1-6.6-1.383,10.429,10.429,0,0,1-4.41-3.868,10.516,10.516,0,0,1-1.557-5.705,14.473,14.473,0,0,1,1.995-7.595,13.835,13.835,0,0,1,5.565-5.2,17.372,17.372,0,0,1,8.19-1.873q7.63,0,11.13,4.8l-5.915,4.585a6.9,6.9,0,0,0-2.485-2.083,7.383,7.383,0,0,0-3.115-.612,7.167,7.167,0,0,0-3.728.945,6.311,6.311,0,0,0-2.45,2.642,8.46,8.46,0,0,0-.857,3.868,4.493,4.493,0,0,0,1.435,3.483,5.64,5.64,0,0,0,3.955,1.312,8.282,8.282,0,0,0,2.415-.35ZM174.5-18.27l-.56,2.87H184.3l-1.19,5.95h-10.4l-.63,3.22h12.285L183.109,0h-20.37l4.9-24.5h19.915l-1.26,6.23Zm37.87,1.82a9.549,9.549,0,0,1-1.732,5.688,10.251,10.251,0,0,1-4.883,3.622l4.1,7.14h-8.575l-3.465-6.16h-2.03L194.554,0h-8.26l4.9-24.5h10.99q4.83,0,7.507,2.118A7.134,7.134,0,0,1,212.369-16.45ZM204-15.645q0-2.485-3.08-2.485h-2.765L197-12.39h3.4a3.818,3.818,0,0,0,2.66-.858A3.073,3.073,0,0,0,204-15.645Z" transform="translate(132 54)" fill="#ccf0a7"/>
  </g>
</svg>
