<svg xmlns="http://www.w3.org/2000/svg" width="16.937" height="23.348" viewBox="0 0 16.937 23.348">
    <g id="prefix__lamp" transform="translate(-.074 .295)">
        <path id="prefix__Контур_136" fill="#b45f06" d="M14.523 2.187A8.462 8.462 0 0 0 .074 8.178a8.36 8.36 0 0 0 4.177 7.3V20.6a2.423 2.423 0 0 0 2.4 2.457h3.781a2.449 2.449 0 0 0 2.424-2.457v-5.126a8.472 8.472 0 0 0 1.667-13.287zm-4.091 19.032H6.651a.6.6 0 0 1-.579-.623v-1.473h4.964V20.6a.624.624 0 0 1-.604.619zm1.1-7.1a.9.9 0 0 0-.5.816V17.3h-1.54v-5.831H11.7a.91.91 0 1 0 0-1.82H5.414a.91.91 0 1 0 0 1.82h2.244V17.3H6.072v-2.365a.921.921 0 0 0-.516-.816A6.589 6.589 0 0 1 1.89 8.178a6.648 6.648 0 1 1 13.3 0 6.58 6.58 0 0 1-3.658 5.937z" data-name="Контур 136"/>
    </g>
</svg>
