<svg height="12.001" viewBox="0 0 15.748 12.001" width="15.748" xmlns="http://www.w3.org/2000/svg">
    <path
        d="M15.53 70.51l-5.25 5.249A.751.751 0 0 1 9 75.228v-3H4.75a.748.748 0 0 1-.75-.75v-3a.748.748 0 0 1 .75-.75H9v-3a.752.752 0 0 1 1.28-.528l5.249 5.249a.756.756 0 0 1 .001 1.061zM6 75.6v-1.25a.376.376 0 0 0-.375-.375H3a1 1 0 0 1-1-1v-6a1 1 0 0 1 1-1h2.624A.376.376 0 0 0 6 65.6v-1.25a.376.376 0 0 0-.375-.375H3a3 3 0 0 0-3 3v6a3 3 0 0 0 3 3h2.624A.376.376 0 0 0 6 75.6z"
        data-name="solid sign-out-alt" fill="#b45f06" id="prefix__solid_sign-out-alt"
        transform="translate(0 -63.979)"></path>
</svg>
