<svg width="195" height="94" viewBox="0 0 195 94" fill="none" xmlns="http://www.w3.org/2000/svg">
<path d="M130.126 38.334L128.854 44.694H144.33L142.422 54.128H126.999L124.614 66H112.106L119.526 28.9H149.683L147.775 38.334H130.126ZM173.363 47.556L183.327 66H169.812L165.201 56.46L157.145 66H142.199L159.689 46.814L150.308 28.9H163.664L168.222 38.175L176.172 28.9H190.27L173.363 47.556Z" fill="#ECB28A"/>
<path fill-rule="evenodd" clip-rule="evenodd" d="M93.0302 21.535L58.397 52.9447L32.281 39.7563L0 59.8566V29C0 12.9837 12.9837 0 29 0H65C78.4353 0 89.7367 9.13633 93.0302 21.535Z" fill="#C4C4C4"/>
<path fill-rule="evenodd" clip-rule="evenodd" d="M93.0302 21.535L58.397 52.9447L32.281 39.7563L0 59.8566V29C0 12.9837 12.9837 0 29 0H65C78.4353 0 89.7367 9.13633 93.0302 21.535Z" fill="url(#paint0_linear)"/>
<path fill-rule="evenodd" clip-rule="evenodd" d="M93.4945 23.5803C93.8264 25.3361 94 27.1477 94 29V65C94 81.0162 81.0163 94 65 94H29C16.031 94 5.0504 85.4868 1.34149 73.7439L33.4333 48.7535L58.3561 60.8695L93.4945 23.5803Z" fill="#C4C4C4"/>
<path fill-rule="evenodd" clip-rule="evenodd" d="M93.4945 23.5803C93.8264 25.3361 94 27.1477 94 29V65C94 81.0162 81.0163 94 65 94H29C16.031 94 5.0504 85.4868 1.34149 73.7439L33.4333 48.7535L58.3561 60.8695L93.4945 23.5803Z" fill="url(#paint1_linear)"/>
<defs>
<linearGradient id="paint0_linear" x1="74.8099" y1="59.7941" x2="63.491" y2="-6.25615" gradientUnits="userSpaceOnUse">
<stop stop-color="#DD9365"/>
<stop offset="1" stop-color="#AF8F72"/>
</linearGradient>
<linearGradient id="paint1_linear" x1="78.1768" y1="81.1315" x2="56.319" y2="25.5659" gradientUnits="userSpaceOnUse">
<stop stop-color="#FFC8A6"/>
<stop offset="1" stop-color="#CFA886"/>
</linearGradient>
</defs>
</svg>
