<svg xmlns="http://www.w3.org/2000/svg" width="18" height="14.727" viewBox="0 0 18 14.727">
    <path id="prefix__iconfinder_mail_227579" fill="#b45f06" d="M19.545 12H6.455A2.455 2.455 0 0 0 4 14.455v9.818a2.455 2.455 0 0 0 2.455 2.455h13.09A2.455 2.455 0 0 0 22 24.273v-9.818A2.455 2.455 0 0 0 19.545 12zm0 1.636a.811.811 0 0 1 .267.048L13 19.134l-6.812-5.45a.812.812 0 0 1 .267-.048zm0 11.455H6.455a.818.818 0 0 1-.818-.818v-8.934l6.852 5.482a.818.818 0 0 0 1.022 0l6.852-5.482v8.934a.818.818 0 0 1-.818.818z" transform="translate(-4 -12)"/>
</svg>
