<svg xmlns="http://www.w3.org/2000/svg" width="12.758" height="13.978" viewBox="0 0 12.758 13.978">
    <path id="prefix__share_arrows" fill="#464646" d="M3 13.723L.267 11.1a.846.846 0 0 1-.18-.259.688.688 0 0 1-.032-.087.767.767 0 0 1-.043-.215.656.656 0 0 1-.006-.09.817.817 0 0 1 .057-.275v-.023a.872.872 0 0 1 .179-.257c.007-.008.011-.018.019-.026L3 7.246a.937.937 0 0 1 1.288 0 .846.846 0 0 1 0 1.235L3.111 9.61h7.824V7.863a.912.912 0 0 1 1.823 0v2.621a.893.893 0 0 1-.911.874H3.111l1.179 1.13a.846.846 0 0 1 0 1.235.94.94 0 0 1-1.288 0zm5.469-6.99a.846.846 0 0 1 0-1.235l1.178-1.13H1.822v1.748a.893.893 0 0 1-.911.874A.893.893 0 0 1 0 6.116V3.494a.893.893 0 0 1 .911-.873h8.735L8.469 1.492a.848.848 0 0 1 0-1.236.94.94 0 0 1 1.288 0l2.734 2.622a.837.837 0 0 1 .18.259.649.649 0 0 1 .032.086.816.816 0 0 1 .044.217.776.776 0 0 1 0 .088.849.849 0 0 1-.057.276.187.187 0 0 1-.006.023.859.859 0 0 1-.18.257c-.007.008-.01.018-.018.026L9.757 6.733a.938.938 0 0 1-1.288 0z" opacity="0.29"/>
</svg>
