<svg xmlns="http://www.w3.org/2000/svg" width="20" height="16.776" viewBox="0 0 20 16.776">
    <path id="prefix__Контур_10" fill="#b45f06" fill-rule="evenodd" d="M38.051 44.188c-.767.747-1.527 1.481-2.28 2.222a1.188 1.188 0 0 1-.937.383.477.477 0 0 1-.481-.372c-.577-1.791-1.162-3.577-1.736-5.369a.418.418 0 0 0-.314-.313q-2.039-.623-4.07-1.27a2.314 2.314 0 0 1-.6-.276.426.426 0 0 1-.069-.717 2.755 2.755 0 0 1 .792-.5c1.661-.658 3.332-1.3 5-1.938l12.7-4.9a.906.906 0 0 1 1.34 1 15 15 0 0 1-.314 1.654Q45.7 40.3 44.314 46.809c-.219 1.03-.943 1.3-1.791.674q-2.13-1.57-4.257-3.144c-.066-.05-.138-.097-.215-.151zm-3.187 1.318l.048-.013a1 1 0 0 0 .025-.121c.091-.984.188-1.967.267-2.952a.723.723 0 0 1 .258-.523q1.963-1.755 3.913-3.523 2.164-1.952 4.324-3.908a1.215 1.215 0 0 0 .187-.329 1.22 1.22 0 0 0-.4-.037 1.761 1.761 0 0 0-.476.235l-9.552 6.016a.286.286 0 0 0-.145.407c.235.675.449 1.356.67 2.035z" data-name="Контур 10" transform="translate(-27.398 -31.041)"/>
</svg>
